<?xml version="1.0" encoding="UTF-8" standalone="no"?>
<!-- Created with Inkscape (http://www.inkscape.org/) -->

<svg
   width="852.01819"
   height="572.2287"
   viewBox="0 0 852.01819 572.2287"
   version="1.1"
   id="svg1"
   xmlns="http://www.w3.org/2000/svg"
   xmlns:svg="http://www.w3.org/2000/svg">
  <defs
     id="defs1">
    <rect
       x="1003.1379"
       y="157.92841"
       width="386.04721"
       height="124.29551"
       id="rect5" />
    <rect
       x="1003.1379"
       y="157.92841"
       width="386.04721"
       height="124.29551"
       id="rect5-5" />
  </defs>
  <g
     id="layer1"
     transform="translate(-13.969942,-13.077196)">
    <path
       style="font-size:85.3333px;font-family:Gigi;-inkscape-font-specification:Gigi;white-space:pre"
       d="m 1039.5553,224.38604 h -0.3333 v 0.5 l -1.625,-0.5 h -1.1667 q -1.2083,-0.83333 -4.2916,-1.54167 -4.25,-0.95833 -4.7917,-1.58333 -2.0833,-1.5 -3.125,-2.25 -1.2917,-0.41666 -2.9167,-1.20833 -1.4166,-1.08333 -4.5833,-2.95833 l -0.5417,-0.95834 q -2.4166,-1.95833 -3.9166,-2.45833 h -1.7084 l -4.7916,-3.66666 q 0.8333,-0.5 2.7083,-0.625 1,-0.125 1.5417,-0.29167 0.75,-0.25 2.75,-1.25 4.75,-2.33333 9.0833,-3.125 l -0.5417,-0.70833 h 1.2084 l -0.3334,-0.58333 2.375,-0.79167 v -0.58333 q 0.9584,-0.66667 3.2084,-1.25 1.9583,-0.54167 2.4166,-0.66667 0.1667,-0.0833 0.6667,-0.375 2,-1.08333 7.2083,-2.75 l 1.5,1.125 -0.75,0.16667 -0.75,0.33333 v 0.79167 q -2.7083,2.16666 -9.9166,4.91666 v 0.54167 l -0.8334,0.25 v 1 q -0.9583,0.41667 -1.875,0.95833 h -1.7083 l 0.5,0.25 -0.875,0.41667 -0.3333,0.875 -4.3334,1.41666 h -1.2916 l -2.0417,0.95834 2.375,1.04166 q 0.875,1.16667 7.7083,4.25 l -0.375,0.79167 q 0.5,0.5 2.25,2.54166 l 2.0417,0.41667 0.3333,-0.41667 q 2.9167,3.70833 8.375,5.375 z m 43.7917,-49.99998 -0.4167,2.375 0.3333,0.41667 -1.0833,1.29166 -0.5,-0.41666 -0.5417,1.20833 q 0,2.20833 -0.25,2.625 l -0.6666,0.5 -0.25,0.625 -0.5417,-0.45834 q -3.2917,4.125 -3.9167,7.625 l -0.1666,-0.0833 q 0,0.0417 0.042,0.33333 v 0.0833 0.0833 q 0.042,0.29166 0.042,0.375 0,0.0417 0,0.16666 l -0.042,0.45834 q 0,0.125 0,0.29166 -0.042,0.58334 -0.042,0.66667 l -0.2917,0.33333 v 0.875 q -0.5417,0.20834 -0.9167,0.45834 -0.9166,0.625 -1.1666,0.75 h -1.0417 l -0.4167,0.79166 h -0.7916 l -0.9167,0.70833 v 0.41667 l -0.4167,0.45833 q -0.375,0.66667 -0.375,1.16667 h -0.1666 q -0.3334,0.54167 -0.6667,0.875 v 0.75 h -0.5833 q -1.0834,2.125 -2.5,6.33333 l 0.25,1.08333 q -1.9167,1.95834 -2.4584,5.08333 h -0.75 l -1.9166,3.58334 h -0.9167 l -1.7083,1.25 -0.5,2.66666 -0.4583,0.5 q -0.042,0.70833 -1.7084,3.54167 -1.625,2.70833 -2.2916,3.45833 -0.875,2.54166 -1.4584,4 l -0.4166,-0.0833 q -0.1667,0.29167 -1.2084,2.83334 -1.25,2.95833 -2.4583,3.91666 0.3333,0.0417 0.5,0.0417 0.5,0 1.0417,-0.20834 l -0.9584,1.95834 -1.4166,0.33333 -0.2917,0.25 -0.25,-0.5 q -0.4583,0.33333 -1.4583,0.33333 l -2.125,-2.29166 -0.5,-1.70834 0.4166,-0.62499 0.3334,-1.41667 q 1.125,-1.125 2.75,-1.70833 2.0416,-1.66667 7.25,-14.95833 0.8333,-1 1.7916,-3.91667 l 0.9584,-1.29166 h 0.5 l 0.25,-0.45833 h 0.5833 q 1.8333,-1.875 2.6666,-4.20834 l 1.875,-1.79166 q 0.125,-0.66667 0.4167,-2.08333 3.0833,-4.70834 4.6667,-7.41667 0.2916,-0.75 2.6666,-5.58333 0.5,-1.08333 0.7917,-1.58333 0.6667,-1.08333 1.0417,-1.79167 1.0416,-1.83333 1.3333,-2.33333 0.4167,-0.625 0.5417,-0.91667 0.042,-0.125 0.5,-1.08333 1.0416,-0.875 1.875,-2.20833 l 0.1666,-1.20833 1.875,-2.66667 q -0.125,-2.79167 2.2084,-5.95833 l 0.7916,-0.25 -0.2083,-0.5 0.2917,-0.45833 0.5,0.875 0.5,-0.5 1.2083,1.70833 h 0.1667 l 0.5833,2.125 z m 53.5833,38.37498 q -0.7917,0.45834 -2.625,0.625 -1.125,0.125 -1.5833,0.29167 -0.8334,0.29167 -2.75,1.25 -4.75,2.33333 -9.0834,3.125 l 0.5,0.70833 h -1.1666 l 0.3333,0.58334 -2.375,0.79166 v 0.58333 q -0.875,0.66667 -3.2083,1.25 l -2.375,0.66667 q -0.125,0 -0.1667,0.0417 -2.2917,1.29166 -7.75,3.08333 l -1.5417,-1.125 0.75,-0.16667 0.7917,-0.33333 v -0.79167 q 2.6667,-2.16666 9.875,-4.91666 v -0.54167 l 0.875,-0.25 v -1 q 0.9583,-0.45833 1.875,-0.95833 h 1.7083 l -0.5,-0.25 0.8334,-0.41667 0.3333,-0.875 4.375,-1.41666 h 1.2917 l 2.0416,-0.95833 -2.4166,-1.04167 q -0.8334,-1.16667 -7.6667,-4.25 l 0.3333,-0.79167 q -1.2083,-1.37499 -2.2083,-2.54166 l -2.0417,-0.41667 -0.3333,0.41667 q -2.9167,-3.66667 -8.375,-5.375 l -1.5417,-1.625 h 0.3334 v -0.5 l 1.625,0.5 h 1.2083 q 1.25,0.875 5.0417,1.70833 3.4583,0.79167 4.0416,1.41667 0.125,0.125 1.6667,1.20833 0.9583,0.70834 1.4583,1.04167 0.8334,0.25 2.875,1.20833 1.3334,1.04167 4.625,2.95833 l 0.5,0.95834 q 2.5417,2 3.9167,2.45833 h 1.7083 z"
       id="text5"
       transform="matrix(6.495694,0,0,8.1071395,-6519.1631,-1365.9018)"
       aria-label="&lt;/ &gt;" />
  </g>
</svg>
